<svg width="254" height="93" viewBox="0 0 254 93" fill="none" xmlns="http://www.w3.org/2000/svg">
<path d="M53.0382 21.1443C51.3711 34.7587 38.9443 37.4726 33.5432 46.719C30.3104 42.771 27.3584 38.5775 23.9557 34.7587C22.5581 33.1821 18.5546 32.4987 16.9479 31.691C11.2529 28.835 7.63445 31.3615 8.56185 37.2027C8.90799 39.3543 14.9364 44.5415 16.9479 46.719C23.9622 54.2983 30.43 54.5697 35.6744 63.3832L33.5432 66.139C41.2041 49.6557 50.452 40.0249 61.1563 25.2668L64.2846 27.4314L64.1801 67.7512L32.9554 86.1536L31.3553 86.2053L0 67.3312L0.137151 27.8901L31.6884 8.99023L33.4583 9.281L53.0448 21.1508L53.0382 21.1443Z" fill="#03AEF2"/>
<path d="M53.0883 21.4868C62.3832 12.9865 74.25 5.67528 85.5881 0C86.0776 0.503351 80.3335 4.4169 79.7526 4.92026C72.7879 10.9353 66.6456 18.2024 61.2148 25.5073C50.5165 39.878 41.8089 55.5196 34.1523 71.5702L33.3429 71.652C28.1015 63.0699 22.8143 54.2738 15.8039 46.8934C13.7869 44.7731 6.13682 38.758 5.7974 36.6628C4.86398 30.9813 11.3391 25.0606 17.031 27.8416C18.6302 28.6218 22.6315 33.2149 24.0349 34.7501C27.4291 38.4686 30.386 42.5583 33.6171 46.3964C39.0152 37.399 45.2424 28.6847 53.1013 21.4931L53.0883 21.4868Z" fill="white"/>
<path d="M145.891 71.1232C143.884 71.4402 142.606 73.1525 140.579 73.6472C124.684 77.5157 126.774 53.2962 127.522 44.0942C128.499 32.013 141.334 32.552 150.684 33.8838C151.822 34.0487 152.934 34.537 153.388 35.6596L153.657 81.7648C153.343 91.0429 141.845 94.3343 134.565 90.9731L133.862 89.0642L134.565 87.7198C136.789 84.9737 145.897 88.1066 145.897 81.955V71.1232H145.891ZM139.729 39.1983C137.102 39.5281 135.696 40.9867 135.345 43.5488C134.961 46.3202 134.987 63.6651 135.799 65.6565C137.377 69.5377 144.293 69.062 145.878 65.3394L145.693 39.8388C143.737 39.433 141.756 38.9383 139.723 39.192L139.729 39.1983Z" fill="white"/>
<path d="M100.764 35.3571C106.763 32.4151 115.11 31.176 118.96 37.7272C121.191 41.5206 121.204 62.6545 119.599 66.8482C116.422 75.1531 103.607 74.5685 95.907 73.4629C94.8118 73.304 93.7371 72.9291 93.0772 72.0523L92.5059 70.559L92.5399 18.042C92.9072 15.8816 94.771 14.8522 96.9817 15.0746C98.6278 14.992 100.771 16.7077 100.771 18.2263V35.3634L100.764 35.3571ZM100.798 67.7696C104.58 68.3224 111.314 69.0722 112.212 64.2049C112.763 61.2312 112.749 45.422 112.246 42.3721C111.362 36.9837 102.151 37.5365 100.641 42.2386L100.798 67.7696Z" fill="white"/>
<path d="M179.71 66.3603C180.452 65.6541 180.538 64.8462 180.645 63.9046C181.54 55.8886 179.212 44.2336 180.479 36.7393C181.155 32.7568 186.168 31.9298 188.151 35.3715V83.9064C186.44 91.8078 175.552 93.85 168.802 91.0953C165.858 85.1342 174.332 86.9855 177.369 85.9358C182.435 84.1863 180.207 74.8407 180.432 70.9027C178.171 71.4116 176.474 73.2629 174.179 73.7337C169.306 74.7325 164.266 72.3977 162.555 67.8553C161.422 64.8398 161.243 40.4356 161.806 36.4785C162.423 32.1333 168.861 32.3051 169.591 36.1286C170.831 42.5859 167.94 61.5571 170.3 66.1058C171.991 69.3567 177.429 68.6633 179.716 66.3603H179.71Z" fill="white"/>
<path d="M205.499 33.4855C224.584 31.2342 222.862 43.1438 222.386 57.6281C222.005 69.2269 219.991 75.2388 206.465 73.907C196.166 72.8924 196.337 64.8956 196.204 56.81C196.058 48.179 194.126 34.8299 205.505 33.4855H205.499ZM207.722 39.1486C205.461 39.5227 204.247 41.0701 203.949 43.277C203.599 45.8834 203.656 63.8999 204.381 65.6629C205.982 69.5884 213.815 69.1381 214.622 64.4517C215.181 61.2047 215.099 46.7014 214.667 43.2516C214.571 42.4969 214.349 41.7423 214.031 41.0511C212.907 39.0534 209.762 38.8061 207.722 39.1486Z" fill="white"/>
<path d="M234.429 31.7733C236.96 31.3008 237.812 33.7605 239.266 34.013C240.958 33.8641 243.13 34.2654 244.744 33.7411C245.699 33.4304 246.564 32.0775 247.551 31.8251C250.818 30.9901 255.72 34.5243 253.394 37.9356C251.068 41.3468 243.566 38.9 240.285 38.7382C239.599 38.6864 239.343 38.9907 239.016 39.5214C237.607 41.8129 239.369 66.0735 238.536 71.0642C238.228 72.9284 236.556 74.0482 234.775 74.0935C229.835 74.1388 230.822 67.038 230.764 63.439C230.655 56.2476 230.059 42.1042 231.014 35.5729C231.251 33.9353 232.846 32.0646 234.423 31.7733H234.429Z" fill="white"/>
<path d="M80.3971 33.29C81.7225 33.0862 82.9938 33.2645 84.1095 33.965C85.0833 34.7101 85.4958 35.8565 85.6446 36.9964C86.3546 42.4606 86.5169 65.7819 85.6175 70.9276C84.921 74.927 78.0303 75.2709 77.4284 71.1633C76.6575 65.9475 76.5967 41.2633 77.4352 36.1876C77.6786 34.7101 78.8215 33.5383 80.4038 33.2963L80.3971 33.29Z" fill="white"/>
<path d="M80.2673 15.1688C87.7813 13.779 88.3583 24.5517 81.0984 24.1162C75.7136 23.7895 75.4045 16.0719 80.2673 15.1688Z" fill="white"/>
</svg>
