<svg width="153" height="42" viewBox="0 0 153 42" fill="none" xmlns="http://www.w3.org/2000/svg">
<path d="M34.1863 5.25486C33.9645 11.8994 32.1953 18.2696 29.1766 23.9508C27.5359 22.5903 26.0645 21.0255 24.7975 19.3206C26.8177 14.9648 28.003 10.2003 28.1957 5.24902H25.6383C25.469 9.2603 24.5931 13.1431 23.1334 16.7515C21.1424 13.2891 19.9279 9.37124 19.706 5.24902H17.0727C16.8509 9.37124 15.6364 13.2891 13.6453 16.7515C12.1798 13.1431 11.3098 9.2603 11.1405 5.24902H8.58308C8.76992 10.2003 9.96104 14.9648 11.9813 19.3206C10.7142 21.0255 9.24287 22.5903 7.60215 23.9508C4.56596 18.2754 2.7968 11.9053 2.57492 5.25486H0C0.233553 12.4717 2.18372 19.3907 5.50018 25.5156C5.90889 26.2688 6.34097 27.0103 6.78472 27.7402C7.83571 29.4451 9.00347 31.0742 10.2471 32.6215C10.7843 33.2871 11.3507 33.9469 11.9287 34.5775C13.2892 36.0839 14.7489 37.5027 16.3078 38.8048C16.9852 39.3887 17.6683 39.9317 18.3748 40.463C19.0871 39.9317 19.7703 39.377 20.4476 38.8048C22.0065 37.4969 23.4662 36.078 24.8267 34.5716C25.4106 33.941 25.9653 33.2871 26.5024 32.6215C27.7578 31.0742 28.9256 29.4393 29.9649 27.7285C30.4203 26.9987 30.8465 26.263 31.2494 25.5156C34.5775 19.3907 36.5277 12.4717 36.7554 5.25486H34.1805H34.1863ZM18.3806 12.2615C19.1864 14.8539 20.3542 17.3062 21.8372 19.5542C20.8621 21.4693 19.7002 23.291 18.3806 24.9959C17.0611 23.291 15.8991 21.4751 14.924 19.5542C16.4013 17.3062 17.5749 14.8481 18.3806 12.2615ZM8.86918 26.2221C10.4865 24.92 11.9579 23.4487 13.2483 21.8488C14.2467 23.6647 15.4145 25.393 16.7049 27.0045C15.3678 28.4934 13.9081 29.8714 12.3258 31.1092C11.0587 29.5619 9.90265 27.927 8.86918 26.2163M18.3806 37.2108C16.8217 35.9262 15.362 34.5424 14.0015 33.0535C15.5722 31.8157 17.0377 30.4436 18.3806 28.9722C19.7236 30.4436 21.1891 31.8099 22.7598 33.0535C21.3993 34.5424 19.9396 35.9262 18.3806 37.2108ZM24.4355 31.115C22.8532 29.8772 21.3935 28.4992 20.0564 27.0103C21.3468 25.393 22.5087 23.6647 23.513 21.8547C24.8033 23.4545 26.2747 24.9259 27.8921 26.2279C26.8586 27.9387 25.7025 29.5736 24.4355 31.1209" fill="#CBB86C"/>
<path d="M63.6087 6.67223H67.3923V23.3713H63.6087V6.67223ZM65.5472 0.389648C66.8376 0.389648 67.8536 1.4056 67.8536 2.69599C67.8536 4.07979 66.8376 5.09574 65.5472 5.09574C64.1634 5.09574 63.1475 4.07979 63.1475 2.69599C63.1475 1.4056 64.1634 0.389648 65.5472 0.389648Z" fill="#086581"/>
<path d="M129.99 15.0749C129.99 16.6456 130.451 17.8484 131.28 18.7709C132.109 19.6 133.219 20.0613 134.696 20.0613C136.08 20.0613 137.189 19.6 138.112 18.6775C138.941 17.7549 139.315 16.5521 139.315 14.9815C139.315 13.5977 138.941 12.4883 138.024 11.5658C137.102 10.6432 135.992 10.182 134.702 10.182C133.318 10.182 132.209 10.6432 131.286 11.5658C130.457 12.4883 129.996 13.6911 129.996 15.0749M126.014 15.0749C126.014 13.9655 126.195 12.862 126.662 11.8402C127.123 10.7308 127.678 9.80829 128.507 8.97918C129.336 8.15007 130.258 7.50196 131.274 7.13411C132.384 6.67284 133.4 6.39258 134.597 6.39258C135.706 6.39258 136.81 6.667 137.826 7.04069C138.842 7.40853 139.764 8.05664 140.599 8.79818C141.522 9.62729 142.17 10.5498 142.631 11.6592C143.092 12.7686 143.373 13.878 143.373 14.9815C143.373 16.2719 143.092 17.4747 142.724 18.4906C142.351 19.5066 141.708 20.4291 140.873 21.2641C140.044 22.1866 139.122 22.8347 138.106 23.2026C136.997 23.6638 135.893 23.8507 134.597 23.8507C133.394 23.8507 132.285 23.6638 131.274 23.2026C130.258 22.7413 129.243 22.0932 128.413 21.2641C127.672 20.3415 127.03 19.419 126.662 18.403C126.201 17.3871 126.014 16.2777 126.014 15.0808" fill="#086581"/>
<path d="M153 9.96586C149.765 10.2461 148.936 11.6299 148.936 14.6778V23.1733H145.152V14.8646C145.152 10.2461 147.832 6.36914 153 6.36914V9.9717V9.96586Z" fill="#086581"/>
<path d="M53.2038 22.8637H50.2494L43.9668 6.33398H48.0306L51.9076 17.3227L55.878 6.33398H59.8484L53.2038 22.8637Z" fill="#086581"/>
<path d="M79.8625 6.2709C78.0174 6.2709 76.219 6.82559 74.9929 7.74813V0H71.3027V14.8598C71.3027 19.5718 75.0629 23.4487 79.8683 23.4487C84.6736 23.4487 88.4572 19.5718 88.4572 14.8598C88.4572 10.1479 84.5802 6.2709 79.8683 6.2709M79.8391 19.6652C77.1591 19.6652 74.9462 17.5398 74.9462 14.8598C74.9462 12.1798 77.1649 10.0603 79.8391 10.0603C82.5133 10.0603 84.6386 12.1856 84.6386 14.8598C84.6386 17.534 82.5133 19.6652 79.8391 19.6652Z" fill="#086581"/>
<path d="M102.268 26.1977C101.252 27.2137 100.049 27.7042 98.4841 27.7042C97.5615 27.7042 96.7324 27.4823 95.9909 27.0152C95.2494 26.6473 94.7005 26.1452 94.3268 25.2227H90.6309C91.1855 27.0677 92.2015 28.5099 93.5853 29.5259C94.8757 30.4484 96.5398 30.9389 98.5717 30.9389C101.252 30.9389 103.377 30.0689 104.854 28.4048C105.683 27.5757 106.238 26.7641 106.606 25.2227H102.91C102.723 25.8357 102.542 25.9233 102.262 26.1977" fill="#086581"/>
<path d="M104.941 6.02446C106.237 6.02446 107.341 5.0085 107.341 3.6247C107.341 2.33432 106.231 1.31836 104.941 1.31836C103.65 1.31836 102.541 2.33432 102.541 3.6247C102.541 5.0085 103.65 6.02446 104.941 6.02446Z" fill="#086581"/>
<path d="M98.6638 6.5791C93.8643 6.5791 89.9814 10.4561 89.9814 15.168C89.9814 19.88 93.8584 23.7569 98.6638 23.7569C103.469 23.7569 107.253 19.88 107.253 15.168C107.253 10.4561 103.376 6.5791 98.6638 6.5791ZM98.6638 19.9675C95.9838 19.9675 93.7708 17.8422 93.7708 15.1622C93.7708 12.4822 95.9896 10.3627 98.6638 10.3627C101.338 10.3627 103.463 12.488 103.463 15.1622C103.463 17.8364 101.245 19.9675 98.6638 19.9675Z" fill="#086581"/>
<path d="M124.005 24.7088C123.637 25.9992 123.083 27.0151 122.341 27.8501C120.957 29.5141 119.107 30.3433 116.619 30.3433C114.862 30.3433 113.297 29.882 112.094 28.9594C110.891 27.9435 109.975 26.5597 109.414 24.7146H112.83C113.11 25.4503 113.659 26.0984 114.307 26.4663C115.049 26.9275 115.784 27.1144 116.619 27.1144C118.003 27.1144 119.112 26.6531 120.035 25.6371C120.216 25.3569 120.403 25.0825 120.59 24.7146H124.005V24.7088ZM113.297 6.33398V15.9389C113.297 17.8773 114.774 19.448 116.713 19.448C118.651 19.448 120.128 17.8773 120.128 15.9389V6.33398H124.011V15.8454C124.011 19.9093 120.689 23.1381 116.718 23.1381C112.748 23.1381 109.42 19.9034 109.42 15.8454V6.33398H113.303H113.297Z" fill="#086581"/>
<path d="M60.2031 35.1602H60.8337V39.983H60.2031V35.1602Z" fill="#086581"/>
<path d="M64.6826 37.8348C64.6826 37.0582 64.2622 36.667 63.6258 36.667C62.9894 36.667 62.5398 37.0699 62.5398 37.8873V39.9835H61.9092V36.1941H62.5398V36.7313C62.7908 36.3342 63.2463 36.124 63.7601 36.124C64.6359 36.124 65.3074 36.6612 65.3074 37.7472V39.9835H64.6826V37.8406V37.8348Z" fill="#086581"/>
<path d="M67.6772 40.0468C66.7897 40.0468 66.1708 39.5621 66.1299 38.8673H66.778C66.813 39.2352 67.14 39.5096 67.6713 39.5096C68.1676 39.5096 68.4479 39.2585 68.4479 38.9491C68.4479 38.1024 66.2058 38.5987 66.2058 37.1857C66.2058 36.6018 66.7546 36.1289 67.5954 36.1289C68.4362 36.1289 68.9851 36.5785 69.0259 37.32H68.3953C68.3662 36.9405 68.0801 36.6602 67.5721 36.6602C67.1108 36.6602 66.8305 36.8821 66.8305 37.1857C66.8305 38.0849 69.0318 37.5945 69.061 38.9491C69.061 39.5738 68.5121 40.0409 67.6772 40.0409V40.0468Z" fill="#086581"/>
<path d="M71.9918 36.1289C73.0078 36.1289 73.7902 36.888 73.7902 38.0732C73.7902 39.2585 73.0078 40.0468 71.9918 40.0468C71.297 40.0468 70.8065 39.6731 70.573 39.2877V41.7867H69.9424V36.199H70.573V36.8996C70.8007 36.4968 71.297 36.1406 71.9918 36.1406V36.1289ZM71.8575 36.6719C71.1744 36.6719 70.573 37.1974 70.573 38.0791C70.573 38.9607 71.1744 39.4921 71.8575 39.4921C72.5407 39.4921 73.1421 38.9666 73.1421 38.0732C73.1421 37.1799 72.5523 36.6778 71.8575 36.6778V36.6719Z" fill="#086581"/>
<path d="M74.5156 35.1489C74.5156 34.9036 74.7025 34.7168 74.9419 34.7168C75.1696 34.7168 75.3564 34.9036 75.3564 35.1489C75.3564 35.3941 75.1696 35.5751 74.9419 35.5751C74.7025 35.5751 74.5156 35.3883 74.5156 35.1489ZM74.6207 36.1882H75.2513V39.9776H74.6207V36.1882Z" fill="#086581"/>
<path d="M76.9489 39.9835H76.3184V36.1941H76.9489V36.8072C77.165 36.3868 77.5737 36.124 78.1751 36.124V36.7721H78.0116C77.4102 36.7721 76.9548 37.0407 76.9548 37.9224V39.9835H76.9489Z" fill="#086581"/>
<path d="M80.5393 40.0468C79.4591 40.0468 78.665 39.2877 78.665 38.0791C78.665 36.8704 79.4299 36.1289 80.5393 36.1289C81.6487 36.1289 82.361 36.9055 82.361 37.9448C82.361 38.0849 82.3552 38.1959 82.3377 38.3243H79.3073C79.354 39.0892 79.897 39.5154 80.5393 39.5154C81.1057 39.5154 81.4677 39.2235 81.602 38.8148H82.2793C82.0866 39.5096 81.4794 40.0468 80.5335 40.0468H80.5393ZM79.319 37.8105H81.7129C81.7187 37.069 81.1641 36.6602 80.5159 36.6602C79.897 36.6602 79.3891 37.069 79.319 37.8105Z" fill="#086581"/>
<path d="M84.7622 36.1303C85.3577 36.1303 85.9008 36.4339 86.1635 36.8718V34.8633H86.7999V39.9839H86.1635V39.2716C85.9358 39.692 85.4453 40.0482 84.7505 40.0482C83.7345 40.0482 82.9521 39.2541 82.9521 38.0746C82.9521 36.8952 83.7345 36.1303 84.7563 36.1303H84.7622ZM84.879 36.6733C84.1841 36.6733 83.6002 37.1813 83.6002 38.0688C83.6002 38.9563 84.19 39.4876 84.879 39.4876C85.5679 39.4876 86.1635 38.968 86.1635 38.0746C86.1635 37.1813 85.5679 36.6675 84.879 36.6675V36.6733Z" fill="#086581"/>
<path d="M91.7623 36.1294C92.7841 36.1294 93.5607 36.8884 93.5607 38.0737C93.5607 39.259 92.7783 40.0472 91.7623 40.0472C91.0675 40.0472 90.577 39.7027 90.3435 39.2882V39.9888H89.7129V34.8682H90.3435V36.9001C90.5887 36.4797 91.0909 36.1294 91.7623 36.1294ZM91.6339 36.6724C90.9507 36.6724 90.3493 37.1979 90.3493 38.0795C90.3493 38.9612 90.9507 39.4925 91.6339 39.4925C92.317 39.4925 92.9184 38.967 92.9184 38.0737C92.9184 37.1803 92.3287 36.6782 91.6339 36.6782V36.6724Z" fill="#086581"/>
<path d="M97.0058 36.1885H97.6539L95.3709 41.7646H94.7228L95.4702 39.937L93.9404 36.1885H94.6411L95.8322 39.2597L97.0058 36.1885Z" fill="#086581"/>
<path d="M102.307 35.0967C103.352 35.0967 104.181 35.6222 104.543 36.5564H103.79C103.527 35.9725 103.013 35.6514 102.307 35.6514C101.297 35.6514 100.544 36.3871 100.544 37.5665C100.544 38.7459 101.297 39.4758 102.307 39.4758C103.013 39.4758 103.527 39.1488 103.79 38.5766H104.543C104.181 39.505 103.352 40.0247 102.307 40.0247C100.958 40.0247 99.9014 39.0145 99.9014 37.5665C99.9014 36.1185 100.958 35.0967 102.307 35.0967Z" fill="#086581"/>
<path d="M106.103 39.9835H105.473V36.1941H106.103V36.8072C106.319 36.3868 106.728 36.124 107.329 36.124V36.7721H107.16C106.559 36.7721 106.103 37.0407 106.103 37.9224V39.9835Z" fill="#086581"/>
<path d="M109.695 40.0468C108.614 40.0468 107.82 39.2877 107.82 38.0791C107.82 36.8704 108.591 36.1289 109.695 36.1289C110.798 36.1289 111.516 36.9055 111.516 37.9448C111.516 38.0849 111.51 38.1959 111.493 38.3243H108.463C108.509 39.0892 109.052 39.5154 109.695 39.5154C110.261 39.5154 110.623 39.2235 110.757 38.8148H111.435C111.242 39.5096 110.635 40.0468 109.689 40.0468H109.695ZM108.468 37.8105H110.862C110.868 37.069 110.313 36.6602 109.665 36.6602C109.052 36.6602 108.538 37.069 108.468 37.8105Z" fill="#086581"/>
<path d="M113.909 36.1289C114.615 36.1289 115.1 36.4909 115.322 36.8821V36.1931H115.958V39.9825H115.322V39.276C115.094 39.6848 114.604 40.0468 113.903 40.0468C112.893 40.0468 112.11 39.2527 112.11 38.0732C112.11 36.8938 112.893 36.1289 113.909 36.1289ZM114.031 36.6719C113.342 36.6719 112.753 37.1799 112.753 38.0674C112.753 38.9549 113.342 39.4862 114.031 39.4862C114.72 39.4862 115.316 38.9666 115.316 38.0732C115.316 37.1799 114.72 36.6661 114.031 36.6661V36.6719Z" fill="#086581"/>
<path d="M117.155 36.7077H116.664V36.188H117.155V35.2305H117.785V36.188H118.772V36.7077H117.785V38.944C117.785 39.3176 117.925 39.4519 118.311 39.4519H118.772V39.9833H118.206C117.534 39.9833 117.155 39.7088 117.155 38.944V36.7077Z" fill="#086581"/>
<path d="M119.432 35.1489C119.432 34.9036 119.618 34.7168 119.864 34.7168C120.091 34.7168 120.278 34.9036 120.278 35.1489C120.278 35.3941 120.091 35.5751 119.864 35.5751C119.624 35.5751 119.432 35.3883 119.432 35.1489ZM119.537 36.1882H120.167V39.9776H119.537V36.1882Z" fill="#086581"/>
<path d="M121.47 36.1885L122.656 39.3998L123.829 36.1885H124.501L123.012 39.9779H122.276L120.787 36.1885H121.464H121.47Z" fill="#086581"/>
<path d="M125.016 35.1489C125.016 34.9036 125.202 34.7168 125.448 34.7168C125.675 34.7168 125.862 34.9036 125.862 35.1489C125.862 35.3941 125.675 35.5751 125.448 35.5751C125.208 35.5751 125.016 35.3883 125.016 35.1489ZM125.121 36.1882H125.751V39.9776H125.121V36.1882Z" fill="#086581"/>
<path d="M126.959 36.7077H126.469V36.188H126.959V35.2305H127.59V36.188H128.577V36.7077H127.59V38.944C127.59 39.3176 127.73 39.4519 128.115 39.4519H128.577V39.9833H128.01C127.339 39.9833 126.959 39.7088 126.959 38.944V36.7077Z" fill="#086581"/>
<path d="M131.957 36.1885H132.605L130.322 41.7646H129.674L130.421 39.937L128.892 36.1885H129.592L130.783 39.2597L131.957 36.1885Z" fill="#086581"/>
</svg>
