<svg width="50" height="49" viewBox="0 0 50 49" fill="none" xmlns="http://www.w3.org/2000/svg">
<ellipse cx="24.9419" cy="24.5" rx="24.9419" ry="24.5" fill="white"/>
<mask id="mask0_1389_279" style="mask-type:alpha" maskUnits="userSpaceOnUse" x="0" y="0" width="50" height="49">
<ellipse cx="24.9419" cy="24.5" rx="24.9419" ry="24.5" fill="white"/>
</mask>
<g mask="url(#mask0_1389_279)">
<path d="M39.9128 48.9997H8.95333C8.81707 48.8372 8.58998 48.8272 8.44502 48.6676C7.9976 48.1759 8.16381 46.9417 8.23049 46.2913C8.95043 39.2308 14.7322 33.6148 21.6446 33.2638C23.3618 33.1766 25.5767 33.1736 27.293 33.2638C34.4403 33.6415 40.3815 39.7632 40.7081 47.1072C40.7458 47.9608 40.7661 48.6101 39.9128 48.9988V48.9997Z" fill="#C7D8E8"/>
<path d="M23.6954 11.028C31.3626 10.454 36.7037 18.8221 33.0266 25.7954C29.6676 32.1678 20.9616 32.8668 16.6632 27.103C11.9657 20.8038 16.037 11.602 23.6954 11.028Z" fill="#C7D8E8"/>
</g>
</svg>
