<svg width="26" height="25" viewBox="0 0 26 25" fill="none" xmlns="http://www.w3.org/2000/svg">
<path d="M1.36842 25V19.0972L19.3974 0.833333C19.6711 0.555556 19.9789 0.347222 20.3211 0.208333C20.6632 0.0694444 21.0053 0 21.3474 0C21.7123 0 22.0601 0.0694444 22.3908 0.208333C22.7215 0.347222 23.0123 0.555556 23.2632 0.833333L25.1789 2.77778C25.4526 3.03241 25.6579 3.32755 25.7947 3.66319C25.9316 3.99884 26 4.35185 26 4.72222C26 5.06944 25.9316 5.41667 25.7947 5.76389C25.6579 6.11111 25.4526 6.42361 25.1789 6.70139L7.18421 25H1.36842ZM4.10526 22.2222H6.02105L19.4658 8.61111L18.5079 7.60417L17.5158 6.63194L4.10526 20.2778V22.2222ZM18.5079 7.60417L17.5158 6.63194L19.4658 8.61111L18.5079 7.60417ZM15.0526 25C16.7404 25 18.3026 24.5718 19.7395 23.7153C21.1763 22.8588 21.8947 21.6667 21.8947 20.1389C21.8947 19.3056 21.6781 18.588 21.2447 17.9861C20.8114 17.3843 20.2298 16.8634 19.5 16.4236L17.4816 18.4722C18.0061 18.7037 18.4167 18.9583 18.7132 19.2361C19.0096 19.5139 19.1579 19.8148 19.1579 20.1389C19.1579 20.6713 18.7417 21.1516 17.9092 21.5799C17.0768 22.0081 16.1246 22.2222 15.0526 22.2222C14.6649 22.2222 14.3399 22.3553 14.0776 22.6215C13.8154 22.8877 13.6842 23.2176 13.6842 23.6111C13.6842 24.0046 13.8154 24.3345 14.0776 24.6007C14.3399 24.8669 14.6649 25 15.0526 25ZM2.15526 14.375L4.20789 12.2917C3.75175 12.1065 3.39254 11.9155 3.13026 11.7188C2.86798 11.522 2.73684 11.3194 2.73684 11.1111C2.73684 10.8333 2.94211 10.5556 3.35263 10.2778C3.76316 10 4.62982 9.57176 5.95263 8.99306C7.95965 8.11343 9.29386 7.31482 9.95526 6.59722C10.6167 5.87963 10.9474 5.06944 10.9474 4.16667C10.9474 2.89352 10.4456 1.88079 9.44211 1.12847C8.4386 0.376157 7.11579 0 5.47368 0C4.44737 0 3.52939 0.185185 2.71974 0.555556C1.91009 0.925926 1.2886 1.37731 0.855263 1.90972C0.604386 2.21065 0.501754 2.5463 0.547368 2.91667C0.592982 3.28704 0.764035 3.58796 1.06053 3.81944C1.35702 4.07407 1.68772 4.17824 2.05263 4.13194C2.41754 4.08565 2.72544 3.93519 2.97632 3.68056C3.29561 3.35648 3.64912 3.125 4.03684 2.98611C4.42456 2.84722 4.90351 2.77778 5.47368 2.77778C6.40877 2.77778 7.09868 2.91667 7.54342 3.19444C7.98816 3.47222 8.21053 3.7963 8.21053 4.16667C8.21053 4.49074 8.01096 4.78588 7.61184 5.05208C7.21272 5.31829 6.29474 5.78704 4.85789 6.45833C3.03333 7.26852 1.76754 8.00347 1.06053 8.66319C0.353509 9.32292 0 10.1389 0 11.1111C0 11.8519 0.19386 12.4826 0.581579 13.0035C0.969298 13.5243 1.49386 13.9815 2.15526 14.375Z" fill="#33AFFF"/>
</svg>
