<svg width="28" height="28" viewBox="0 0 28 28" fill="none" xmlns="http://www.w3.org/2000/svg">
<path d="M5.02825 11.1544L7.75188 12.3054C8.07779 11.6543 8.41533 11.0266 8.76451 10.422C9.1137 9.81748 9.4978 9.21295 9.91682 8.60842L7.96139 8.22477L5.02825 11.1544ZM9.98666 14.0492L13.9674 17.9903C14.9451 17.6183 15.9926 17.0486 17.11 16.2813C18.2274 15.5141 19.2749 14.6421 20.2527 13.6656C21.8822 12.038 23.1567 10.2302 24.0762 8.24221C24.9957 6.25422 25.3973 4.42318 25.2809 2.74909C23.6048 2.63283 21.7658 3.03392 19.7638 3.95235C17.7618 4.87077 15.9461 6.14378 14.3165 7.77137C13.3388 8.74793 12.4659 9.79423 11.6977 10.9103C10.9295 12.0264 10.3591 13.0727 9.98666 14.0492ZM15.399 9.81167C15.399 9.03275 15.6667 8.37591 16.2021 7.84113C16.7375 7.30635 17.401 7.03896 18.1925 7.03896C18.984 7.03896 19.6474 7.30635 20.1828 7.84113C20.7182 8.37591 20.9859 9.03275 20.9859 9.81167C20.9859 10.5906 20.7182 11.2474 20.1828 11.7822C19.6474 12.317 18.984 12.5844 18.1925 12.5844C17.401 12.5844 16.7375 12.317 16.2021 11.7822C15.6667 11.2474 15.399 10.5906 15.399 9.81167ZM16.8656 22.9777L19.7987 20.0481L19.4146 18.0949C18.8094 18.5135 18.2041 18.8913 17.5989 19.2284C16.9936 19.5656 16.3651 19.8969 15.7133 20.2224L16.8656 22.9777ZM27.795 0.203074C28.2373 3.01648 27.9638 5.75432 26.9745 8.41659C25.9851 11.0789 24.2799 13.6191 21.8589 16.0372L22.5573 19.49C22.6504 19.9551 22.6271 20.4085 22.4874 20.8502C22.3478 21.292 22.115 21.6756 21.7891 22.0012L15.9228 27.8605L12.9896 20.9897L7.01859 15.0258L0.139674 12.0961L5.97104 6.23679C6.29695 5.91127 6.68687 5.67875 7.14081 5.53925C7.59475 5.39974 8.05451 5.37649 8.52009 5.46949L11.977 6.16703C14.398 3.7489 16.9354 2.03993 19.5892 1.04012C22.243 0.0403148 24.9783 -0.238701 27.795 0.203074ZM2.61888 19.4551C3.43364 18.6414 4.42881 18.2286 5.6044 18.217C6.77999 18.2054 7.77516 18.6065 8.58992 19.4203C9.40468 20.2341 9.80625 21.2281 9.79461 22.4023C9.78297 23.5764 9.36977 24.5704 8.555 25.3842C7.97303 25.9655 7.00114 26.4654 5.63932 26.8839C4.2775 27.3025 2.39773 27.6745 0 28C0.325905 25.6051 0.698368 23.7276 1.11739 22.3674C1.53641 21.0072 2.03691 20.0364 2.61888 19.4551ZM4.60923 21.4083C4.37644 21.6408 4.14365 22.0651 3.91086 22.6813C3.67807 23.2974 3.51512 23.9194 3.422 24.5472C4.05053 24.4542 4.67324 24.2972 5.29013 24.0763C5.90703 23.8555 6.33187 23.6288 6.56466 23.3962C6.844 23.1172 6.99532 22.7801 7.01859 22.3848C7.04187 21.9895 6.91384 21.6524 6.63449 21.3734C6.35515 21.0944 6.0176 20.9607 5.62186 20.9723C5.22612 20.9839 4.88857 21.1292 4.60923 21.4083Z" fill="#33AFFF"/>
</svg>
