<svg width="29" height="25" viewBox="0 0 29 25" fill="none" xmlns="http://www.w3.org/2000/svg">
<path d="M26.3636 23.6842V2.63158H2.63636V13.1579H0V2.63158C0 1.90789 0.258144 1.28838 0.774432 0.773026C1.29072 0.257675 1.91136 0 2.63636 0H26.3636C27.0886 0 27.7093 0.257675 28.2256 0.773026C28.7419 1.28838 29 1.90789 29 2.63158V21.0526C29 21.7763 28.7419 22.3958 28.2256 22.9112C27.7093 23.4265 27.0886 23.6842 26.3636 23.6842ZM6.82159 12.9276C5.78901 11.8969 5.27273 10.6579 5.27273 9.21053C5.27273 7.76316 5.78901 6.52412 6.82159 5.49342C7.85417 4.46272 9.09545 3.94737 10.5455 3.94737C11.9955 3.94737 13.2367 4.46272 14.2693 5.49342C15.3019 6.52412 15.8182 7.76316 15.8182 9.21053C15.8182 10.6579 15.3019 11.8969 14.2693 12.9276C13.2367 13.9583 11.9955 14.4737 10.5455 14.4737C9.09545 14.4737 7.85417 13.9583 6.82159 12.9276ZM12.4074 11.0691C12.9237 10.5537 13.1818 9.93421 13.1818 9.21053C13.1818 8.48684 12.9237 7.86732 12.4074 7.35197C11.8911 6.83662 11.2705 6.57895 10.5455 6.57895C9.82045 6.57895 9.19981 6.83662 8.68352 7.35197C8.16723 7.86732 7.90909 8.48684 7.90909 9.21053C7.90909 9.93421 8.16723 10.5537 8.68352 11.0691C9.19981 11.5844 9.82045 11.8421 10.5455 11.8421C11.2705 11.8421 11.8911 11.5844 12.4074 11.0691ZM0 25V21.3158C0 20.5702 0.192235 19.8849 0.576705 19.2599C0.961174 18.6349 1.47197 18.1579 2.10909 17.8289C3.47121 17.1491 4.8553 16.6393 6.26136 16.2993C7.66742 15.9594 9.09545 15.7895 10.5455 15.7895C11.9955 15.7895 13.4235 15.9594 14.8295 16.2993C16.2356 16.6393 17.6197 17.1491 18.9818 17.8289C19.6189 18.1579 20.1297 18.6349 20.5142 19.2599C20.8987 19.8849 21.0909 20.5702 21.0909 21.3158V25H0ZM2.63636 22.3684H18.4545V21.3158C18.4545 21.0746 18.3941 20.8553 18.2733 20.6579C18.1525 20.4605 17.9932 20.307 17.7955 20.1974C16.6091 19.6053 15.4117 19.1612 14.2034 18.8651C12.9951 18.5691 11.7758 18.4211 10.5455 18.4211C9.31515 18.4211 8.09583 18.5691 6.8875 18.8651C5.67917 19.1612 4.48182 19.6053 3.29545 20.1974C3.09773 20.307 2.93845 20.4605 2.81761 20.6579C2.69678 20.8553 2.63636 21.0746 2.63636 21.3158V22.3684Z" fill="#03AEF2"/>
</svg>
