<svg width="30" height="29" viewBox="0 0 30 29" fill="none" xmlns="http://www.w3.org/2000/svg">
<path d="M10.3636 29L7.77273 24.581L2.86364 23.4762L3.34091 18.3667L0 14.5L3.34091 10.6333L2.86364 5.52381L7.77273 4.41905L10.3636 0L15 2.00238L19.6364 0L22.2273 4.41905L27.1364 5.52381L26.6591 10.6333L30 14.5L26.6591 18.3667L27.1364 23.4762L22.2273 24.581L19.6364 29L15 26.9976L10.3636 29ZM11.5227 25.4786L15 23.9595L18.5455 25.4786L20.4545 22.1643L24.2045 21.2667L23.8636 17.4L26.3864 14.5L23.8636 11.531L24.2045 7.66429L20.4545 6.83571L18.4773 3.52143L15 5.04048L11.4545 3.52143L9.54545 6.83571L5.79545 7.66429L6.13636 11.531L3.61364 14.5L6.13636 17.4L5.79545 21.3357L9.54545 22.1643L11.5227 25.4786ZM13.5682 19.4024L21.2727 11.6L19.3636 9.59762L13.5682 15.4667L10.6364 12.5667L8.72727 14.5L13.5682 19.4024Z" fill="#33AFFF"/>
</svg>
